<?xml version="1.0" standalone="no"?><!DOCTYPE svg PUBLIC "-//W3C//DTD SVG 1.1//EN" "http://www.w3.org/Graphics/SVG/1.1/DTD/svg11.dtd"><svg t="1624609030102" class="icon" viewBox="0 0 1024 1024" version="1.1" xmlns="http://www.w3.org/2000/svg" p-id="4633" xmlns:xlink="http://www.w3.org/1999/xlink" width="75" height="75"><defs><style type="text/css"></style></defs><path d="M485.056774 145.642973a21.22764 21.22764 0 0 0 5.20678 3.818305 21.22764 21.22764 0 0 0 42.45528 0 21.054081 21.054081 0 0 0 5.220131-3.818305l90.624667-90.624668a21.22764 21.22764 0 0 0-30.025763-30.025763L532.732185 90.784876V21.22764a21.240991 21.240991 0 0 0-42.468631 0V90.784876l-65.805685-65.792334a21.22764 21.22764 0 0 0-30.025762 30.025763zM909.929995 415.754681c-21.78837-39.638279-53.603129-77.63442-91.999792-109.849701-84.7103-71.065867-193.371786-110.210169-305.971734-110.210169S290.723736 234.839113 206.013436 305.90498c-38.396662 32.228631-70.224772 70.211421-91.999791 109.849701C91.57109 456.594524 79.715653 499.316819 79.715653 539.248814c0 58.075619 23.297001 107.900495 71.226076 152.318331 40.813142 37.835932 93.535124 67.234211 149.367822 98.354732 93.868892 52.294759 190.915254 106.378514 208.978775 201.849492l6.074576 32.228631 26.99515-18.490743c50.732725-34.711864 148.740339-105.577471 235.266336-189.139609 110.557288-106.805737 166.603598-199.980391 166.603599-277.054081 0-39.998748-11.855437-82.721043-34.297992-123.560886z m-161.984251 369.814863c-71.880261 69.423729-152.198175 129.969231-205.000261 167.39129-13.978201-39.571525-40.052151-75.324746-79.209804-108.594732-41.734342-35.526258-93.027797-64.083442-142.625711-91.746128-53.523025-29.825502-104.06884-58.008866-141.13043-92.360261C140.72843 623.852308 122.437948 585.402243 122.437948 539.248814c0-67.274263 41.507379-142.265241 111.037914-200.607875 77.020287-64.630821 175.922399-100.223833 278.482607-100.223833s201.475671 35.593012 278.509309 100.223833c69.530535 58.342634 111.037914 133.333611 111.037914 200.607875 0 64.123494-53.095802 149.301069-153.559948 246.32073z" fill="#ffffff" p-id="4634"></path></svg>